<svg width="100" height="100" viewBox="0 0 100 100" fill="none" xmlns="http://www.w3.org/2000/svg">
<path d="M47.9158 87.5H35.7241C32.7383 87.4999 29.8511 86.4309 27.5851 84.4866C25.319 82.5424 23.8238 79.8511 23.3699 76.9L18.1408 42.9333C17.9581 41.7458 18.0345 40.5327 18.3645 39.3774C18.6946 38.2221 19.2706 37.1519 20.053 36.24C20.8355 35.3282 21.8058 34.5963 22.8976 34.0946C23.9894 33.5929 25.1767 33.3332 26.3783 33.3333H73.6241C74.8256 33.3332 76.013 33.5929 77.1048 34.0946C78.1965 34.5963 79.1669 35.3282 79.9493 36.24C80.7318 37.1519 81.3078 38.2221 81.6378 39.3774C81.9679 40.5327 82.0442 41.7458 81.8616 42.9333L79.7783 56.4667M37.4999 45.8333V25C37.4999 21.6848 38.8169 18.5054 41.1611 16.1612C43.5053 13.817 46.6847 12.5 49.9999 12.5C53.3151 12.5 56.4945 13.817 58.8388 16.1612C61.183 18.5054 62.4999 21.6848 62.4999 25V45.8333M62.4999 79.1667L70.8332 87.5L87.4999 70.8333" stroke="#7D83A3" stroke-width="9" stroke-linecap="round" stroke-linejoin="round"/>
</svg>
