<svg width="100" height="100" viewBox="0 0 100 100" fill="none" xmlns="http://www.w3.org/2000/svg">
<path d="M37.5 62.5L62.5 37.5M41.6667 39.5833C41.6667 40.7339 40.7339 41.6667 39.5833 41.6667C38.4327 41.6667 37.5 40.7339 37.5 39.5833C37.5 38.4327 38.4327 37.5 39.5833 37.5C40.7339 37.5 41.6667 38.4327 41.6667 39.5833ZM62.5 60.4167C62.5 61.5673 61.5673 62.5 60.4167 62.5C59.2661 62.5 58.3333 61.5673 58.3333 60.4167C58.3333 59.2661 59.2661 58.3333 60.4167 58.3333C61.5673 58.3333 62.5 59.2661 62.5 60.4167ZM12.5 50C12.5 54.9246 13.47 59.8009 15.3545 64.3506C17.2391 68.9003 20.0013 73.0343 23.4835 76.5165C26.9657 79.9987 31.0997 82.7609 35.6494 84.6455C40.1991 86.53 45.0754 87.5 50 87.5C54.9246 87.5 59.8009 86.53 64.3506 84.6455C68.9003 82.7609 73.0343 79.9987 76.5165 76.5165C79.9987 73.0343 82.7609 68.9003 84.6455 64.3506C86.53 59.8009 87.5 54.9246 87.5 50C87.5 45.0754 86.53 40.1991 84.6455 35.6494C82.7609 31.0997 79.9987 26.9657 76.5165 23.4835C73.0343 20.0013 68.9003 17.2391 64.3506 15.3545C59.8009 13.47 54.9246 12.5 50 12.5C45.0754 12.5 40.1991 13.47 35.6494 15.3545C31.0997 17.2391 26.9657 20.0013 23.4835 23.4835C20.0013 26.9657 17.2391 31.0997 15.3545 35.6494C13.47 40.1991 12.5 45.0754 12.5 50Z" stroke="#8A91B3" stroke-width="9" stroke-linecap="round" stroke-linejoin="round"/>
</svg>
