<?xml version="1.0" encoding="UTF-8" standalone="no"?>
<!-- Created with Inkscape (http://www.inkscape.org/) -->

<svg
   width="135.46666mm"
   height="135.46669mm"
   viewBox="0 0 135.46666 135.46669"
   version="1.1"
   id="svg1"
   xmlns="http://www.w3.org/2000/svg"
   xmlns:svg="http://www.w3.org/2000/svg">
  <defs
     id="defs1" />
  <g
     id="layer1"
     transform="translate(-8.7394889,-3.4497983)">
    <path
       style="fill:#1e0a03;fill-opacity:1;stroke:#ffffff;stroke-width:3.09562"
       d="m 49.112765,97.412404 c -3.772599,1.667791 -8.048948,2.136655 -12.112476,1.428298 -4.063528,-0.708356 -7.90409,-2.578608 -11.036781,-5.261942 -3.132691,-2.683333 -5.558479,-6.166057 -7.088206,-9.996718 -1.529728,-3.830661 -2.169849,-8.001415 -1.965734,-12.121168 0.408229,-8.239507 4.205505,-16.126032 9.822667,-22.167854 5.617162,-6.041822 12.96284,-10.316619 20.754279,-13.027633 16.67275,-5.801245 35.220993,-4.549286 52.040017,0.813125 9.324579,2.972958 18.396969,7.266632 25.605449,13.886607 7.20849,6.619976 12.41898,15.775892 12.89815,25.551205 0.23959,4.887657 -0.71401,9.854417 -2.92921,14.217841 -2.2152,4.363424 -5.70896,8.100134 -10.01256,10.429435 -4.30359,2.32931 -9.41056,3.20935 -14.21132,2.26109 -4.80077,-0.94827 -9.24402,-3.758194 -12.001011,-7.801163 -2.07423,-3.04174 -3.154736,-6.629424 -4.550471,-10.036261 -0.697867,-1.703419 -1.484205,-3.37966 -2.50786,-4.909623 -1.023655,-1.529962 -2.294255,-2.915174 -3.837547,-3.918619 -1.651971,-1.074108 -3.587028,-1.686156 -5.550105,-1.856586 -1.963077,-0.17043 -3.95298,0.09307 -5.836134,0.673113 -3.76631,1.160079 -7.046592,3.544693 -9.913889,6.248297 -2.867297,2.703605 -5.387224,5.751316 -8.1465,8.56508 -2.759276,2.813763 -5.816342,5.430035 -9.420758,7.023476 z"
       id="path2"
       transform="rotate(-3.969445,131.6811,62.955524)" />
    <path
       style="fill:#ffffff;fill-opacity:1;stroke:none;stroke-width:3.09562"
       d="m 40.005761,97.90028 c 1.681718,-0.04257 3.335554,-0.777189 4.494603,-1.996448 1.15905,-1.21926 1.809038,-2.908149 1.766463,-4.589867 -0.04257,-1.681718 -0.777189,-3.335554 -1.996448,-4.494603 -1.21926,-1.15905 -2.908149,-1.809038 -4.589867,-1.766463 -1.681718,0.04257 -3.335554,0.777189 -4.494603,1.996448 -1.15905,1.21926 -1.809038,2.908149 -1.766463,4.589867 0.04257,1.681718 0.777189,3.335554 1.996448,4.494603 1.21926,1.15905 2.908149,1.809038 4.589867,1.766463 z"
       id="path7"
       transform="matrix(0.73425868,0,0,0.67098694,4.0016531,18.387989)" />
    <path
       style="fill:#ffffff;fill-opacity:1;stroke:none;stroke-width:3.09562"
       d="m 40.005761,97.90028 c 1.681718,-0.04257 3.335554,-0.777189 4.494603,-1.996448 1.15905,-1.21926 1.809038,-2.908149 1.766463,-4.589867 -0.04257,-1.681718 -0.777189,-3.335554 -1.996448,-4.494603 -1.21926,-1.15905 -2.908149,-1.809038 -4.589867,-1.766463 -1.681718,0.04257 -3.335554,0.777189 -4.494603,1.996448 -1.15905,1.21926 -1.809038,2.908149 -1.766463,4.589867 0.04257,1.681718 0.777189,3.335554 1.996448,4.494603 1.21926,1.15905 2.908149,1.809038 4.589867,1.766463 z"
       id="path8"
       transform="matrix(0.73425868,0,0,0.67098694,14.247031,7.4921104)" />
    <path
       style="fill:#ffffff;fill-opacity:1;stroke:none;stroke-width:3.09562"
       d="m 40.005761,97.90028 c 1.681718,-0.04257 3.335554,-0.777189 4.494603,-1.996448 1.15905,-1.21926 1.809038,-2.908149 1.766463,-4.589867 -0.04257,-1.681718 -0.777189,-3.335554 -1.996448,-4.494603 -1.21926,-1.15905 -2.908149,-1.809038 -4.589867,-1.766463 -1.681718,0.04257 -3.335554,0.777189 -4.494603,1.996448 -1.15905,1.21926 -1.809038,2.908149 -1.766463,4.589867 0.04257,1.681718 0.777189,3.335554 1.996448,4.494603 1.21926,1.15905 2.908149,1.809038 4.589867,1.766463 z"
       id="path9"
       transform="matrix(0.73425868,0,0,0.67098694,22.378284,19.038489)" />
    <path
       style="fill:#ffffff;fill-opacity:1;stroke:none;stroke-width:3.09562"
       d="m 40.005761,97.90028 c 1.681718,-0.04257 3.335554,-0.777189 4.494603,-1.996448 1.15905,-1.21926 1.809038,-2.908149 1.766463,-4.589867 -0.04257,-1.681718 -0.777189,-3.335554 -1.996448,-4.494603 -1.21926,-1.15905 -2.908149,-1.809038 -4.589867,-1.766463 -1.681718,0.04257 -3.335554,0.777189 -4.494603,1.996448 -1.15905,1.21926 -1.809038,2.908149 -1.766463,4.589867 0.04257,1.681718 0.777189,3.335554 1.996448,4.494603 1.21926,1.15905 2.908149,1.809038 4.589867,1.766463 z"
       id="path11"
       transform="matrix(0.73425868,0,0,0.67098694,12.946031,30.259618)" />
    <path
       style="fill:#ffffff;fill-opacity:1;stroke:none;stroke-width:3.09562"
       d="m 40.005761,97.90028 c 1.681718,-0.04257 3.335554,-0.777189 4.494603,-1.996448 1.15905,-1.21926 1.809038,-2.908149 1.766463,-4.589867 -0.04257,-1.681718 -0.777189,-3.335554 -1.996448,-4.494603 -1.21926,-1.15905 -2.908149,-1.809038 -4.589867,-1.766463 -1.681718,0.04257 -3.335554,0.777189 -4.494603,1.996448 -1.15905,1.21926 -1.809038,2.908149 -1.766463,4.589867 0.04257,1.681718 0.777189,3.335554 1.996448,4.494603 1.21926,1.15905 2.908149,1.809038 4.589867,1.766463 z"
       id="path13"
       transform="matrix(0.73425868,0,0,0.67098694,77.345551,17.574864)" />
    <path
       style="fill:#ffffff;fill-opacity:1;stroke:none;stroke-width:3.09562"
       d="m 40.005761,97.90028 c 1.681718,-0.04257 3.335554,-0.777189 4.494603,-1.996448 1.15905,-1.21926 1.809038,-2.908149 1.766463,-4.589867 -0.04257,-1.681718 -0.777189,-3.335554 -1.996448,-4.494603 -1.21926,-1.15905 -2.908149,-1.809038 -4.589867,-1.766463 -1.681718,0.04257 -3.335554,0.777189 -4.494603,1.996448 -1.15905,1.21926 -1.809038,2.908149 -1.766463,4.589867 0.04257,1.681718 0.777189,3.335554 1.996448,4.494603 1.21926,1.15905 2.908149,1.809038 4.589867,1.766463 z"
       id="path14"
       transform="matrix(0.73425868,0,0,0.67098694,87.590929,6.6789851)" />
    <path
       style="fill:#ffffff;fill-opacity:1;stroke:none;stroke-width:3.09562"
       d="m 40.005761,97.90028 c 1.681718,-0.04257 3.335554,-0.777189 4.494603,-1.996448 1.15905,-1.21926 1.809038,-2.908149 1.766463,-4.589867 -0.04257,-1.681718 -0.777189,-3.335554 -1.996448,-4.494603 -1.21926,-1.15905 -2.908149,-1.809038 -4.589867,-1.766463 -1.681718,0.04257 -3.335554,0.777189 -4.494603,1.996448 -1.15905,1.21926 -1.809038,2.908149 -1.766463,4.589867 0.04257,1.681718 0.777189,3.335554 1.996448,4.494603 1.21926,1.15905 2.908149,1.809038 4.589867,1.766463 z"
       id="path15"
       transform="matrix(0.73425868,0,0,0.67098694,95.722182,18.225364)" />
    <path
       style="fill:#ffffff;fill-opacity:1;stroke:none;stroke-width:3.09562"
       d="m 40.005761,97.90028 c 1.681718,-0.04257 3.335554,-0.777189 4.494603,-1.996448 1.15905,-1.21926 1.809038,-2.908149 1.766463,-4.589867 -0.04257,-1.681718 -0.777189,-3.335554 -1.996448,-4.494603 -1.21926,-1.15905 -2.908149,-1.809038 -4.589867,-1.766463 -1.681718,0.04257 -3.335554,0.777189 -4.494603,1.996448 -1.15905,1.21926 -1.809038,2.908149 -1.766463,4.589867 0.04257,1.681718 0.777189,3.335554 1.996448,4.494603 1.21926,1.15905 2.908149,1.809038 4.589867,1.766463 z"
       id="path16"
       transform="matrix(0.73425868,0,0,0.67098694,86.289929,29.446493)" />
  </g>
</svg>
