<svg width="100" height="100" viewBox="0 0 100 100" fill="none" xmlns="http://www.w3.org/2000/svg">
<path d="M50 66.6667V66.7083M50 54.1667C51.874 54.1723 53.6951 53.5461 55.1694 52.3893C56.6437 51.2325 57.685 49.6125 58.1252 47.7909C58.5654 45.9694 58.3788 44.0527 57.5955 42.3503C56.8123 40.6478 55.478 39.2591 53.8083 38.4083C52.1507 37.5592 50.2546 37.2959 48.4284 37.6613C46.6021 38.0267 44.9533 38.9993 43.75 40.4208M82.8125 26.125C85.7292 27.7833 87.5208 30.8875 87.5 34.2417V64.5917C87.5 67.9625 85.6542 71.0708 82.675 72.7083L54.55 90.5C53.1556 91.2656 51.5907 91.6669 50 91.6669C48.4093 91.6669 46.8443 91.2656 45.45 90.5L17.325 72.7083C15.8674 71.9118 14.6505 70.7382 13.8017 69.3103C12.9529 67.8825 12.5033 66.2528 12.5 64.5917V34.2375C12.5 30.8667 14.3458 27.7625 17.325 26.125L45.45 9.54167C46.8856 8.75016 48.4982 8.33505 50.1375 8.33505C51.7768 8.33505 53.3894 8.75016 54.825 9.54167L82.95 26.125H82.8125Z" stroke="#8A91B3" stroke-width="9" stroke-linecap="round" stroke-linejoin="round"/>
</svg>
